<svg version="1.1" xmlns="http://www.w3.org/2000/svg" xmlns:xlink="http://www.w3.org/1999/xlink" viewBox="0 0 100 100">
    <path fill="#4B0082" d="M50,28.2C50,28.2,50,28.2,50,28.2l0,6.7c0,0,0,0,0,0c8.3,0,15.1,6.8,15.1,15.1S58.3,65.1,50,65.1 S34.9,58.3,34.9,50c0,0,0,0,0,0h-6.7c0,0,0,0,0,0c0,12,9.8,21.8,21.8,21.8S71.8,62,71.8,50S62,28.2,50,28.2z"/>
    <path fill="#800080" d="M76.7,55.5C74.1,67.9,63.2,77.3,50,77.3c-1.9,0-3.7-0.2-5.5-0.6l-1.3,6.6c2.2,0.5,4.5,0.7,6.9,0.7 c16.4,0,30.1-11.6,33.3-27.1L76.7,55.5z"/>
    <path fill="#800080" d="M23.3,44.6C25.8,32.1,36.8,22.7,50,22.7c1.9,0,3.8,0.2,5.5,0.6l1.4-6.6c-2.3-0.5-4.6-0.7-7-0.7 c-16.5,0-30.2,11.7-33.3,27.2L23.3,44.6z"/>
    <path fill="#9370DB" d="M12.2,61.4l-6.6,2c5.1,17,19.8,29.9,37.8,32.5l1-6.8C29.1,86.9,16.6,75.9,12.2,61.4z"/>
    <path fill="#9370DB" d="M8,30.3l6.2,2.9C19,23.2,27.8,15.4,38.6,12.2l-2-6.6C24,9.4,13.6,18.5,8,30.3z"/>
    <path fill="#9370DB" d="M73.9,10.3c-0.1,0.2-2.6,4.3-3.6,5.9C81.8,23.1,89.5,35.7,89.5,50c0,4-0.6,7.8-1.7,11.4l6.6,2 c1.3-4.3,2-8.8,2-13.4 C96.4,33.1,87.4,18.4,73.9,10.3z"/>
</svg>